<svg width="320" height="322" viewBox="0 0 320 322" fill="none" xmlns="http://www.w3.org/2000/svg">
<rect width="320" height="322" fill="#1E1E1E"/>
<mask id="path-1-inside-1_0_1" fill="white">
<path d="M0 8C0 3.58172 3.58172 0 8 0H312C316.418 0 320 3.58172 320 8V314C320 318.418 316.418 322 312 322H7.99999C3.58171 322 0 318.418 0 314V8Z"/>
</mask>
<path d="M0 8C0 3.58172 3.58172 0 8 0H312C316.418 0 320 3.58172 320 8V314C320 318.418 316.418 322 312 322H7.99999C3.58171 322 0 318.418 0 314V8Z" fill="white"/>
<path d="M8 0V1H312V0V-1H8V0ZM320 8H319V314H320H321V8H320ZM312 322V321H7.99999V322V323H312V322ZM0 314H1V8H0H-1V314H0ZM7.99999 322V321C4.134 321 1 317.866 1 314H0H-1C-1 318.971 3.02943 323 7.99999 323V322ZM320 314H319C319 317.866 315.866 321 312 321V322V323C316.971 323 321 318.971 321 314H320ZM312 0V1C315.866 1 319 4.13401 319 8H320H321C321 3.02944 316.971 -1 312 -1V0ZM8 0V-1C3.02944 -1 -1 3.02943 -1 8H0H1C1 4.134 4.13401 1 8 1V0Z" fill="#D9D9D9" mask="url(#path-1-inside-1_0_1)"/>
<path d="M33.0455 29.3636H34.4545V37.0682C34.4545 37.8636 34.267 38.5739 33.892 39.1989C33.5208 39.8201 32.9962 40.3106 32.3182 40.6705C31.6402 41.0265 30.8447 41.2045 29.9318 41.2045C29.0189 41.2045 28.2235 41.0265 27.5455 40.6705C26.8674 40.3106 26.3409 39.8201 25.9659 39.1989C25.5947 38.5739 25.4091 37.8636 25.4091 37.0682V29.3636H26.8182V36.9545C26.8182 37.5227 26.9432 38.0284 27.1932 38.4716C27.4432 38.911 27.7992 39.2576 28.2614 39.5114C28.7273 39.7614 29.2841 39.8864 29.9318 39.8864C30.5795 39.8864 31.1364 39.7614 31.6023 39.5114C32.0682 39.2576 32.4242 38.911 32.6705 38.4716C32.9205 38.0284 33.0455 37.5227 33.0455 36.9545V29.3636ZM43.2685 34.2273L42.0639 34.5682C41.9882 34.3674 41.8764 34.1723 41.7287 33.983C41.5848 33.7898 41.3878 33.6307 41.1378 33.5057C40.8878 33.3807 40.5677 33.3182 40.1776 33.3182C39.6435 33.3182 39.1984 33.4413 38.8423 33.6875C38.4901 33.9299 38.3139 34.2386 38.3139 34.6136C38.3139 34.947 38.4351 35.2102 38.6776 35.4034C38.92 35.5966 39.2988 35.7576 39.8139 35.8864L41.1094 36.2045C41.8897 36.3939 42.4711 36.6837 42.8537 37.0739C43.2363 37.4602 43.4276 37.9583 43.4276 38.5682C43.4276 39.0682 43.2836 39.5152 42.9957 39.9091C42.7116 40.303 42.3139 40.6136 41.8026 40.8409C41.2912 41.0682 40.6965 41.1818 40.0185 41.1818C39.1283 41.1818 38.3916 40.9886 37.8082 40.6023C37.2249 40.2159 36.8556 39.6515 36.7003 38.9091L37.973 38.5909C38.0942 39.0606 38.3234 39.4129 38.6605 39.6477C39.0014 39.8826 39.4465 40 39.9957 40C40.6207 40 41.117 39.8674 41.4844 39.6023C41.8556 39.3333 42.0412 39.0114 42.0412 38.6364C42.0412 38.3333 41.9351 38.0795 41.723 37.875C41.5109 37.6667 41.1851 37.5114 40.7457 37.4091L39.2912 37.0682C38.492 36.8788 37.9048 36.5852 37.5298 36.1875C37.1586 35.786 36.973 35.2841 36.973 34.6818C36.973 34.1894 37.1113 33.7538 37.3878 33.375C37.6681 32.9962 38.0488 32.6989 38.5298 32.483C39.0147 32.267 39.5639 32.1591 40.1776 32.1591C41.0412 32.1591 41.7192 32.3485 42.2116 32.7273C42.7079 33.1061 43.0601 33.6061 43.2685 34.2273ZM50.946 37.4318V32.2727H52.2869V41H50.946V39.5227H50.8551C50.6506 39.9659 50.3324 40.3428 49.9006 40.6534C49.4688 40.9602 48.9233 41.1136 48.2642 41.1136C47.7188 41.1136 47.2339 40.9943 46.8097 40.7557C46.3854 40.5133 46.0521 40.1496 45.8097 39.6648C45.5672 39.1761 45.446 38.5606 45.446 37.8182V32.2727H46.7869V37.7273C46.7869 38.3636 46.965 38.8712 47.321 39.25C47.6809 39.6288 48.1392 39.8182 48.696 39.8182C49.0294 39.8182 49.3684 39.733 49.7131 39.5625C50.0616 39.392 50.3532 39.1307 50.5881 38.7784C50.8267 38.4261 50.946 37.9773 50.946 37.4318ZM57.3111 41.2045C56.758 41.2045 56.2562 41.1004 55.8054 40.892C55.3546 40.6799 54.9967 40.375 54.7315 39.9773C54.4664 39.5758 54.3338 39.0909 54.3338 38.5227C54.3338 38.0227 54.4323 37.6174 54.6293 37.3068C54.8262 36.9924 55.0895 36.7462 55.419 36.5682C55.7486 36.3902 56.1122 36.2576 56.5099 36.1705C56.9115 36.0795 57.3149 36.0076 57.7202 35.9545C58.2505 35.8864 58.6804 35.8352 59.0099 35.8011C59.3433 35.7633 59.5857 35.7008 59.7372 35.6136C59.8925 35.5265 59.9702 35.375 59.9702 35.1591V35.1136C59.9702 34.553 59.8168 34.1174 59.5099 33.8068C59.2069 33.4962 58.7467 33.3409 58.1293 33.3409C57.4891 33.3409 56.9872 33.4811 56.6236 33.7614C56.2599 34.0417 56.0043 34.3409 55.8565 34.6591L54.5838 34.2045C54.8111 33.6742 55.1141 33.2614 55.4929 32.9659C55.8755 32.6667 56.2921 32.4583 56.7429 32.3409C57.1974 32.2197 57.6444 32.1591 58.0838 32.1591C58.3641 32.1591 58.6861 32.1932 59.0497 32.2614C59.4171 32.3258 59.7713 32.4602 60.1122 32.6648C60.4569 32.8693 60.7429 33.178 60.9702 33.5909C61.1974 34.0038 61.3111 34.5568 61.3111 35.25V41H59.9702V39.8182H59.902C59.8111 40.0076 59.6596 40.2102 59.4474 40.4261C59.2353 40.642 58.9531 40.8258 58.6009 40.9773C58.2486 41.1288 57.8187 41.2045 57.3111 41.2045ZM57.5156 40C58.0459 40 58.4929 39.8958 58.8565 39.6875C59.224 39.4792 59.5005 39.2102 59.6861 38.8807C59.8755 38.5511 59.9702 38.2045 59.9702 37.8409V36.6136C59.9134 36.6818 59.7884 36.7443 59.5952 36.8011C59.4058 36.8542 59.1861 36.9015 58.9361 36.9432C58.6899 36.9811 58.4493 37.0152 58.2145 37.0455C57.9834 37.072 57.7959 37.0947 57.652 37.1136C57.3035 37.1591 56.9777 37.233 56.6747 37.3352C56.3755 37.4337 56.133 37.5833 55.9474 37.7841C55.7656 37.9811 55.6747 38.25 55.6747 38.5909C55.6747 39.0568 55.8471 39.4091 56.1918 39.6477C56.5402 39.8826 56.9815 40 57.5156 40ZM63.7585 41V32.2727H65.054V33.5909H65.1449C65.304 33.1591 65.5919 32.8087 66.0085 32.5398C66.4252 32.2708 66.8949 32.1364 67.4176 32.1364C67.5161 32.1364 67.6392 32.1383 67.7869 32.142C67.9347 32.1458 68.0464 32.1515 68.1222 32.1591V33.5227C68.0767 33.5114 67.9725 33.4943 67.8097 33.4716C67.6506 33.4451 67.482 33.4318 67.304 33.4318C66.8797 33.4318 66.5009 33.5208 66.1676 33.6989C65.8381 33.8731 65.5767 34.1155 65.3835 34.4261C65.1941 34.733 65.0994 35.0833 65.0994 35.4773V41H63.7585ZM69.7116 41V32.2727H71.0526V41H69.7116ZM70.3935 30.8182C70.1321 30.8182 69.9067 30.7292 69.7173 30.5511C69.5317 30.3731 69.4389 30.1591 69.4389 29.9091C69.4389 29.6591 69.5317 29.4451 69.7173 29.267C69.9067 29.089 70.1321 29 70.3935 29C70.6548 29 70.8783 29.089 71.0639 29.267C71.2533 29.4451 71.348 29.6591 71.348 29.9091C71.348 30.1591 71.2533 30.3731 71.0639 30.5511C70.8783 30.7292 70.6548 30.8182 70.3935 30.8182ZM77.054 41.1818C76.2661 41.1818 75.5748 40.9943 74.9801 40.6193C74.3892 40.2443 73.9271 39.7197 73.5938 39.0455C73.2642 38.3712 73.0994 37.5833 73.0994 36.6818C73.0994 35.7727 73.2642 34.9792 73.5938 34.3011C73.9271 33.6231 74.3892 33.0966 74.9801 32.7216C75.5748 32.3466 76.2661 32.1591 77.054 32.1591C77.8419 32.1591 78.5313 32.3466 79.1222 32.7216C79.7169 33.0966 80.179 33.6231 80.5085 34.3011C80.8419 34.9792 81.0085 35.7727 81.0085 36.6818C81.0085 37.5833 80.8419 38.3712 80.5085 39.0455C80.179 39.7197 79.7169 40.2443 79.1222 40.6193C78.5313 40.9943 77.8419 41.1818 77.054 41.1818ZM77.054 39.9773C77.6525 39.9773 78.1449 39.8239 78.5312 39.517C78.9176 39.2102 79.2036 38.8068 79.3892 38.3068C79.5748 37.8068 79.6676 37.2652 79.6676 36.6818C79.6676 36.0985 79.5748 35.5549 79.3892 35.0511C79.2036 34.5473 78.9176 34.1402 78.5312 33.8295C78.1449 33.5189 77.6525 33.3636 77.054 33.3636C76.4555 33.3636 75.9631 33.5189 75.5767 33.8295C75.1903 34.1402 74.9044 34.5473 74.7188 35.0511C74.5331 35.5549 74.4403 36.0985 74.4403 36.6818C74.4403 37.2652 74.5331 37.8068 74.7188 38.3068C74.9044 38.8068 75.1903 39.2102 75.5767 39.517C75.9631 39.8239 76.4555 39.9773 77.054 39.9773Z" fill="#1E1E1E"/>
<path d="M24 62C24 57.5817 27.5817 54 32 54H288C292.418 54 296 57.5817 296 62V86C296 90.4183 292.418 94 288 94H32C27.5817 94 24 90.4183 24 86V62Z" fill="white"/>
<path d="M32 54V54.5H288V54V53.5H32V54ZM296 62H295.5V86H296H296.5V62H296ZM288 94V93.5H32V94V94.5H288V94ZM24 86H24.5V62H24H23.5V86H24ZM32 94V93.5C27.8579 93.5 24.5 90.1421 24.5 86H24H23.5C23.5 90.6944 27.3056 94.5 32 94.5V94ZM296 86H295.5C295.5 90.1421 292.142 93.5 288 93.5V94V94.5C292.694 94.5 296.5 90.6944 296.5 86H296ZM288 54V54.5C292.142 54.5 295.5 57.8579 295.5 62H296H296.5C296.5 57.3056 292.694 53.5 288 53.5V54ZM32 54V53.5C27.3056 53.5 23.5 57.3056 23.5 62H24H24.5C24.5 57.8579 27.8579 54.5 32 54.5V54Z" fill="#D9D9D9"/>
<path d="M49.0455 68.3636H50.4545V76.0682C50.4545 76.8636 50.267 77.5739 49.892 78.1989C49.5208 78.8201 48.9962 79.3106 48.3182 79.6705C47.6402 80.0265 46.8447 80.2045 45.9318 80.2045C45.0189 80.2045 44.2235 80.0265 43.5455 79.6705C42.8674 79.3106 42.3409 78.8201 41.9659 78.1989C41.5947 77.5739 41.4091 76.8636 41.4091 76.0682V68.3636H42.8182V75.9545C42.8182 76.5227 42.9432 77.0284 43.1932 77.4716C43.4432 77.911 43.7992 78.2576 44.2614 78.5114C44.7273 78.7614 45.2841 78.8864 45.9318 78.8864C46.5795 78.8864 47.1364 78.7614 47.6023 78.5114C48.0682 78.2576 48.4242 77.911 48.6705 77.4716C48.9205 77.0284 49.0455 76.5227 49.0455 75.9545V68.3636ZM59.2685 73.2273L58.0639 73.5682C57.9882 73.3674 57.8764 73.1723 57.7287 72.983C57.5848 72.7898 57.3878 72.6307 57.1378 72.5057C56.8878 72.3807 56.5677 72.3182 56.1776 72.3182C55.6435 72.3182 55.1984 72.4413 54.8423 72.6875C54.4901 72.9299 54.3139 73.2386 54.3139 73.6136C54.3139 73.947 54.4351 74.2102 54.6776 74.4034C54.92 74.5966 55.2988 74.7576 55.8139 74.8864L57.1094 75.2045C57.8897 75.3939 58.4711 75.6837 58.8537 76.0739C59.2363 76.4602 59.4276 76.9583 59.4276 77.5682C59.4276 78.0682 59.2836 78.5152 58.9957 78.9091C58.7116 79.303 58.3139 79.6136 57.8026 79.8409C57.2912 80.0682 56.6965 80.1818 56.0185 80.1818C55.1283 80.1818 54.3916 79.9886 53.8082 79.6023C53.2249 79.2159 52.8556 78.6515 52.7003 77.9091L53.973 77.5909C54.0942 78.0606 54.3234 78.4129 54.6605 78.6477C55.0014 78.8826 55.4465 79 55.9957 79C56.6207 79 57.117 78.8674 57.4844 78.6023C57.8556 78.3333 58.0412 78.0114 58.0412 77.6364C58.0412 77.3333 57.9351 77.0795 57.723 76.875C57.5109 76.6667 57.1851 76.5114 56.7457 76.4091L55.2912 76.0682C54.492 75.8788 53.9048 75.5852 53.5298 75.1875C53.1586 74.786 52.973 74.2841 52.973 73.6818C52.973 73.1894 53.1113 72.7538 53.3878 72.375C53.6681 71.9962 54.0488 71.6989 54.5298 71.483C55.0147 71.267 55.5639 71.1591 56.1776 71.1591C57.0412 71.1591 57.7192 71.3485 58.2116 71.7273C58.7079 72.1061 59.0601 72.6061 59.2685 73.2273ZM66.946 76.4318V71.2727H68.2869V80H66.946V78.5227H66.8551C66.6506 78.9659 66.3324 79.3428 65.9006 79.6534C65.4688 79.9602 64.9233 80.1136 64.2642 80.1136C63.7188 80.1136 63.2339 79.9943 62.8097 79.7557C62.3854 79.5133 62.0521 79.1496 61.8097 78.6648C61.5672 78.1761 61.446 77.5606 61.446 76.8182V71.2727H62.7869V76.7273C62.7869 77.3636 62.965 77.8712 63.321 78.25C63.6809 78.6288 64.1392 78.8182 64.696 78.8182C65.0294 78.8182 65.3684 78.733 65.7131 78.5625C66.0616 78.392 66.3532 78.1307 66.5881 77.7784C66.8267 77.4261 66.946 76.9773 66.946 76.4318ZM73.3111 80.2045C72.758 80.2045 72.2562 80.1004 71.8054 79.892C71.3546 79.6799 70.9967 79.375 70.7315 78.9773C70.4664 78.5758 70.3338 78.0909 70.3338 77.5227C70.3338 77.0227 70.4323 76.6174 70.6293 76.3068C70.8262 75.9924 71.0895 75.7462 71.419 75.5682C71.7486 75.3902 72.1122 75.2576 72.5099 75.1705C72.9115 75.0795 73.3149 75.0076 73.7202 74.9545C74.2505 74.8864 74.6804 74.8352 75.0099 74.8011C75.3433 74.7633 75.5857 74.7008 75.7372 74.6136C75.8925 74.5265 75.9702 74.375 75.9702 74.1591V74.1136C75.9702 73.553 75.8168 73.1174 75.5099 72.8068C75.2069 72.4962 74.7467 72.3409 74.1293 72.3409C73.4891 72.3409 72.9872 72.4811 72.6236 72.7614C72.2599 73.0417 72.0043 73.3409 71.8565 73.6591L70.5838 73.2045C70.8111 72.6742 71.1141 72.2614 71.4929 71.9659C71.8755 71.6667 72.2921 71.4583 72.7429 71.3409C73.1974 71.2197 73.6444 71.1591 74.0838 71.1591C74.3641 71.1591 74.6861 71.1932 75.0497 71.2614C75.4171 71.3258 75.7713 71.4602 76.1122 71.6648C76.4569 71.8693 76.7429 72.178 76.9702 72.5909C77.1974 73.0038 77.3111 73.5568 77.3111 74.25V80H75.9702V78.8182H75.902C75.8111 79.0076 75.6596 79.2102 75.4474 79.4261C75.2353 79.642 74.9531 79.8258 74.6009 79.9773C74.2486 80.1288 73.8187 80.2045 73.3111 80.2045ZM73.5156 79C74.0459 79 74.4929 78.8958 74.8565 78.6875C75.224 78.4792 75.5005 78.2102 75.6861 77.8807C75.8755 77.5511 75.9702 77.2045 75.9702 76.8409V75.6136C75.9134 75.6818 75.7884 75.7443 75.5952 75.8011C75.4058 75.8542 75.1861 75.9015 74.9361 75.9432C74.6899 75.9811 74.4493 76.0152 74.2145 76.0455C73.9834 76.072 73.7959 76.0947 73.652 76.1136C73.3035 76.1591 72.9777 76.233 72.6747 76.3352C72.3755 76.4337 72.133 76.5833 71.9474 76.7841C71.7656 76.9811 71.6747 77.25 71.6747 77.5909C71.6747 78.0568 71.8471 78.4091 72.1918 78.6477C72.5402 78.8826 72.9815 79 73.5156 79ZM79.7585 80V71.2727H81.054V72.5909H81.1449C81.304 72.1591 81.5919 71.8087 82.0085 71.5398C82.4252 71.2708 82.8949 71.1364 83.4176 71.1364C83.5161 71.1364 83.6392 71.1383 83.7869 71.142C83.9347 71.1458 84.0464 71.1515 84.1222 71.1591V72.5227C84.0767 72.5114 83.9725 72.4943 83.8097 72.4716C83.6506 72.4451 83.482 72.4318 83.304 72.4318C82.8797 72.4318 82.5009 72.5208 82.1676 72.6989C81.8381 72.8731 81.5767 73.1155 81.3835 73.4261C81.1941 73.733 81.0994 74.0833 81.0994 74.4773V80H79.7585ZM85.7116 80V71.2727H87.0526V80H85.7116ZM86.3935 69.8182C86.1321 69.8182 85.9067 69.7292 85.7173 69.5511C85.5317 69.3731 85.4389 69.1591 85.4389 68.9091C85.4389 68.6591 85.5317 68.4451 85.7173 68.267C85.9067 68.089 86.1321 68 86.3935 68C86.6548 68 86.8783 68.089 87.0639 68.267C87.2533 68.4451 87.348 68.6591 87.348 68.9091C87.348 69.1591 87.2533 69.3731 87.0639 69.5511C86.8783 69.7292 86.6548 69.8182 86.3935 69.8182ZM93.054 80.1818C92.2661 80.1818 91.5748 79.9943 90.9801 79.6193C90.3892 79.2443 89.9271 78.7197 89.5938 78.0455C89.2642 77.3712 89.0994 76.5833 89.0994 75.6818C89.0994 74.7727 89.2642 73.9792 89.5938 73.3011C89.9271 72.6231 90.3892 72.0966 90.9801 71.7216C91.5748 71.3466 92.2661 71.1591 93.054 71.1591C93.8419 71.1591 94.5313 71.3466 95.1222 71.7216C95.7169 72.0966 96.179 72.6231 96.5085 73.3011C96.8419 73.9792 97.0085 74.7727 97.0085 75.6818C97.0085 76.5833 96.8419 77.3712 96.5085 78.0455C96.179 78.7197 95.7169 79.2443 95.1222 79.6193C94.5313 79.9943 93.8419 80.1818 93.054 80.1818ZM93.054 78.9773C93.6525 78.9773 94.1449 78.8239 94.5312 78.517C94.9176 78.2102 95.2036 77.8068 95.3892 77.3068C95.5748 76.8068 95.6676 76.2652 95.6676 75.6818C95.6676 75.0985 95.5748 74.5549 95.3892 74.0511C95.2036 73.5473 94.9176 73.1402 94.5312 72.8295C94.1449 72.5189 93.6525 72.3636 93.054 72.3636C92.4555 72.3636 91.9631 72.5189 91.5767 72.8295C91.1903 73.1402 90.9044 73.5473 90.7188 74.0511C90.5331 74.5549 90.4403 75.0985 90.4403 75.6818C90.4403 76.2652 90.5331 76.8068 90.7188 77.3068C90.9044 77.8068 91.1903 78.2102 91.5767 78.517C91.9631 78.8239 92.4555 78.9773 93.054 78.9773Z" fill="#B3B3B3"/>
<path d="M34.7727 127H33.3636C33.2803 126.595 33.1345 126.239 32.9261 125.932C32.7216 125.625 32.4716 125.367 32.1761 125.159C31.8845 124.947 31.5606 124.788 31.2045 124.682C30.8485 124.576 30.4773 124.523 30.0909 124.523C29.3864 124.523 28.7481 124.701 28.1761 125.057C27.608 125.413 27.1553 125.938 26.8182 126.631C26.4848 127.324 26.3182 128.174 26.3182 129.182C26.3182 130.189 26.4848 131.04 26.8182 131.733C27.1553 132.426 27.608 132.951 28.1761 133.307C28.7481 133.663 29.3864 133.841 30.0909 133.841C30.4773 133.841 30.8485 133.788 31.2045 133.682C31.5606 133.576 31.8845 133.419 32.1761 133.21C32.4716 132.998 32.7216 132.739 32.9261 132.432C33.1345 132.121 33.2803 131.765 33.3636 131.364H34.7727C34.6667 131.958 34.4735 132.491 34.1932 132.96C33.9129 133.43 33.5644 133.83 33.1477 134.159C32.7311 134.485 32.2633 134.733 31.7443 134.903C31.2292 135.074 30.678 135.159 30.0909 135.159C29.0985 135.159 28.2159 134.917 27.4432 134.432C26.6705 133.947 26.0625 133.258 25.6193 132.364C25.1761 131.47 24.9545 130.409 24.9545 129.182C24.9545 127.955 25.1761 126.894 25.6193 126C26.0625 125.106 26.6705 124.417 27.4432 123.932C28.2159 123.447 29.0985 123.205 30.0909 123.205C30.678 123.205 31.2292 123.29 31.7443 123.46C32.2633 123.631 32.7311 123.881 33.1477 124.21C33.5644 124.536 33.9129 124.934 34.1932 125.403C34.4735 125.869 34.6667 126.402 34.7727 127ZM40.4134 135.182C39.6255 135.182 38.9342 134.994 38.3395 134.619C37.7486 134.244 37.2865 133.72 36.9531 133.045C36.6236 132.371 36.4588 131.583 36.4588 130.682C36.4588 129.773 36.6236 128.979 36.9531 128.301C37.2865 127.623 37.7486 127.097 38.3395 126.722C38.9342 126.347 39.6255 126.159 40.4134 126.159C41.2012 126.159 41.8906 126.347 42.4815 126.722C43.0762 127.097 43.5384 127.623 43.8679 128.301C44.2012 128.979 44.3679 129.773 44.3679 130.682C44.3679 131.583 44.2012 132.371 43.8679 133.045C43.5384 133.72 43.0762 134.244 42.4815 134.619C41.8906 134.994 41.2012 135.182 40.4134 135.182ZM40.4134 133.977C41.0118 133.977 41.5043 133.824 41.8906 133.517C42.277 133.21 42.563 132.807 42.7486 132.307C42.9342 131.807 43.027 131.265 43.027 130.682C43.027 130.098 42.9342 129.555 42.7486 129.051C42.563 128.547 42.277 128.14 41.8906 127.83C41.5043 127.519 41.0118 127.364 40.4134 127.364C39.8149 127.364 39.3224 127.519 38.9361 127.83C38.5497 128.14 38.2637 128.547 38.0781 129.051C37.8925 129.555 37.7997 130.098 37.7997 130.682C37.7997 131.265 37.8925 131.807 38.0781 132.307C38.2637 132.807 38.5497 133.21 38.9361 133.517C39.3224 133.824 39.8149 133.977 40.4134 133.977ZM47.7557 129.75V135H46.4148V126.273H47.7102V127.636H47.8239C48.0284 127.193 48.339 126.837 48.7557 126.568C49.1723 126.295 49.7102 126.159 50.3693 126.159C50.9602 126.159 51.4773 126.28 51.9205 126.523C52.3636 126.761 52.7083 127.125 52.9545 127.614C53.2008 128.098 53.3239 128.712 53.3239 129.455V135H51.983V129.545C51.983 128.86 51.8049 128.326 51.4489 127.943C51.0928 127.557 50.6042 127.364 49.983 127.364C49.5549 127.364 49.1723 127.456 48.8352 127.642C48.5019 127.828 48.2386 128.098 48.0455 128.455C47.8523 128.811 47.7557 129.242 47.7557 129.75ZM59.5696 126.273V127.409H55.0469V126.273H59.5696ZM56.3651 124.182H57.706V132.5C57.706 132.879 57.7609 133.163 57.8707 133.352C57.9844 133.538 58.1283 133.663 58.3026 133.727C58.4806 133.788 58.6681 133.818 58.8651 133.818C59.0128 133.818 59.134 133.811 59.2287 133.795C59.3234 133.777 59.3991 133.761 59.456 133.75L59.7287 134.955C59.6378 134.989 59.5109 135.023 59.348 135.057C59.1851 135.095 58.9787 135.114 58.7287 135.114C58.3499 135.114 57.9787 135.032 57.6151 134.869C57.2552 134.706 56.956 134.458 56.7173 134.125C56.4825 133.792 56.3651 133.371 56.3651 132.864V124.182ZM61.5866 135V126.273H62.8821V127.591H62.973C63.1321 127.159 63.42 126.809 63.8366 126.54C64.2533 126.271 64.723 126.136 65.2457 126.136C65.3442 126.136 65.4673 126.138 65.6151 126.142C65.7628 126.146 65.8745 126.152 65.9503 126.159V127.523C65.9048 127.511 65.8007 127.494 65.6378 127.472C65.4787 127.445 65.3101 127.432 65.1321 127.432C64.7079 127.432 64.3291 127.521 63.9957 127.699C63.6662 127.873 63.4048 128.116 63.2116 128.426C63.0223 128.733 62.9276 129.083 62.9276 129.477V135H61.5866ZM70.108 135.205C69.5549 135.205 69.053 135.1 68.6023 134.892C68.1515 134.68 67.7936 134.375 67.5284 133.977C67.2633 133.576 67.1307 133.091 67.1307 132.523C67.1307 132.023 67.2292 131.617 67.4261 131.307C67.6231 130.992 67.8864 130.746 68.2159 130.568C68.5455 130.39 68.9091 130.258 69.3068 130.17C69.7083 130.08 70.1117 130.008 70.517 129.955C71.0473 129.886 71.4773 129.835 71.8068 129.801C72.1402 129.763 72.3826 129.701 72.5341 129.614C72.6894 129.527 72.767 129.375 72.767 129.159V129.114C72.767 128.553 72.6136 128.117 72.3068 127.807C72.0038 127.496 71.5436 127.341 70.9261 127.341C70.286 127.341 69.7841 127.481 69.4205 127.761C69.0568 128.042 68.8011 128.341 68.6534 128.659L67.3807 128.205C67.608 127.674 67.911 127.261 68.2898 126.966C68.6723 126.667 69.089 126.458 69.5398 126.341C69.9943 126.22 70.4413 126.159 70.8807 126.159C71.161 126.159 71.483 126.193 71.8466 126.261C72.214 126.326 72.5682 126.46 72.9091 126.665C73.2538 126.869 73.5398 127.178 73.767 127.591C73.9943 128.004 74.108 128.557 74.108 129.25V135H72.767V133.818H72.6989C72.608 134.008 72.4564 134.21 72.2443 134.426C72.0322 134.642 71.75 134.826 71.3977 134.977C71.0455 135.129 70.6155 135.205 70.108 135.205ZM70.3125 134C70.8428 134 71.2898 133.896 71.6534 133.688C72.0208 133.479 72.2973 133.21 72.483 132.881C72.6723 132.551 72.767 132.205 72.767 131.841V130.614C72.7102 130.682 72.5852 130.744 72.392 130.801C72.2027 130.854 71.983 130.902 71.733 130.943C71.4867 130.981 71.2462 131.015 71.0114 131.045C70.7803 131.072 70.5928 131.095 70.4489 131.114C70.1004 131.159 69.7746 131.233 69.4716 131.335C69.1723 131.434 68.9299 131.583 68.7443 131.784C68.5625 131.981 68.4716 132.25 68.4716 132.591C68.4716 133.057 68.6439 133.409 68.9886 133.648C69.3371 133.883 69.7784 134 70.3125 134ZM82.7372 128.227L81.5327 128.568C81.4569 128.367 81.3452 128.172 81.1974 127.983C81.0535 127.79 80.8565 127.631 80.6065 127.506C80.3565 127.381 80.0365 127.318 79.6463 127.318C79.1122 127.318 78.6671 127.441 78.3111 127.688C77.9588 127.93 77.7827 128.239 77.7827 128.614C77.7827 128.947 77.9039 129.21 78.1463 129.403C78.3887 129.597 78.7675 129.758 79.2827 129.886L80.5781 130.205C81.3584 130.394 81.9399 130.684 82.3224 131.074C82.705 131.46 82.8963 131.958 82.8963 132.568C82.8963 133.068 82.7524 133.515 82.4645 133.909C82.1804 134.303 81.7827 134.614 81.2713 134.841C80.7599 135.068 80.1652 135.182 79.4872 135.182C78.5971 135.182 77.8603 134.989 77.277 134.602C76.6937 134.216 76.3243 133.652 76.169 132.909L77.4418 132.591C77.563 133.061 77.7921 133.413 78.1293 133.648C78.4702 133.883 78.9152 134 79.4645 134C80.0895 134 80.5857 133.867 80.9531 133.602C81.3243 133.333 81.5099 133.011 81.5099 132.636C81.5099 132.333 81.4039 132.08 81.1918 131.875C80.9796 131.667 80.6539 131.511 80.2145 131.409L78.7599 131.068C77.9607 130.879 77.3736 130.585 76.9986 130.188C76.6274 129.786 76.4418 129.284 76.4418 128.682C76.4418 128.189 76.58 127.754 76.8565 127.375C77.1368 126.996 77.5175 126.699 77.9986 126.483C78.4834 126.267 79.0327 126.159 79.6463 126.159C80.5099 126.159 81.188 126.348 81.6804 126.727C82.1766 127.106 82.5289 127.606 82.7372 128.227ZM88.5739 135.182C87.733 135.182 87.0076 134.996 86.3977 134.625C85.7917 134.25 85.3239 133.727 84.9943 133.057C84.6686 132.383 84.5057 131.598 84.5057 130.705C84.5057 129.811 84.6686 129.023 84.9943 128.341C85.3239 127.655 85.7822 127.121 86.3693 126.739C86.9602 126.352 87.6496 126.159 88.4375 126.159C88.892 126.159 89.3409 126.235 89.7841 126.386C90.2273 126.538 90.6307 126.784 90.9943 127.125C91.358 127.462 91.6477 127.909 91.8636 128.466C92.0795 129.023 92.1875 129.708 92.1875 130.523V131.091H85.4602V129.932H90.8239C90.8239 129.439 90.7254 129 90.5284 128.614C90.3352 128.227 90.0587 127.922 89.6989 127.699C89.3428 127.475 88.9223 127.364 88.4375 127.364C87.9034 127.364 87.4413 127.496 87.0511 127.761C86.6648 128.023 86.3674 128.364 86.1591 128.784C85.9508 129.205 85.8466 129.655 85.8466 130.136V130.909C85.8466 131.568 85.9602 132.127 86.1875 132.585C86.4186 133.04 86.7386 133.386 87.1477 133.625C87.5568 133.86 88.0322 133.977 88.5739 133.977C88.9261 133.977 89.2443 133.928 89.5284 133.83C89.8163 133.727 90.0644 133.576 90.2727 133.375C90.4811 133.17 90.642 132.917 90.7557 132.614L92.0511 132.977C91.9148 133.417 91.6856 133.803 91.3636 134.136C91.0417 134.466 90.6439 134.723 90.1705 134.909C89.697 135.091 89.1648 135.182 88.5739 135.182ZM95.5682 129.75V135H94.2273V126.273H95.5227V127.636H95.6364C95.8409 127.193 96.1515 126.837 96.5682 126.568C96.9848 126.295 97.5227 126.159 98.1818 126.159C98.7727 126.159 99.2898 126.28 99.733 126.523C100.176 126.761 100.521 127.125 100.767 127.614C101.013 128.098 101.136 128.712 101.136 129.455V135H99.7955V129.545C99.7955 128.86 99.6174 128.326 99.2614 127.943C98.9053 127.557 98.4167 127.364 97.7955 127.364C97.3674 127.364 96.9848 127.456 96.6477 127.642C96.3144 127.828 96.0511 128.098 95.858 128.455C95.6648 128.811 95.5682 129.242 95.5682 129.75ZM95.9318 125.227L94.8864 125.182C94.8864 124.602 95.0511 124.129 95.3807 123.761C95.714 123.39 96.125 123.205 96.6136 123.205C96.8295 123.205 97.0208 123.242 97.1875 123.318C97.3542 123.39 97.5133 123.473 97.6648 123.568C97.8163 123.663 97.9716 123.748 98.1307 123.824C98.2936 123.896 98.4773 123.932 98.6818 123.932C98.8977 123.932 99.0795 123.848 99.2273 123.682C99.3788 123.511 99.4545 123.307 99.4545 123.068L100.477 123.159C100.477 123.75 100.311 124.22 99.9773 124.568C99.6477 124.917 99.2386 125.091 98.75 125.091C98.4886 125.091 98.2727 125.055 98.1023 124.983C97.9318 124.907 97.7803 124.822 97.6477 124.727C97.5152 124.633 97.375 124.549 97.2273 124.477C97.0795 124.402 96.8977 124.364 96.6818 124.364C96.4659 124.364 96.286 124.449 96.142 124.619C96.0019 124.786 95.9318 124.989 95.9318 125.227ZM106.155 135.205C105.602 135.205 105.1 135.1 104.649 134.892C104.198 134.68 103.84 134.375 103.575 133.977C103.31 133.576 103.178 133.091 103.178 132.523C103.178 132.023 103.276 131.617 103.473 131.307C103.67 130.992 103.933 130.746 104.263 130.568C104.592 130.39 104.956 130.258 105.354 130.17C105.755 130.08 106.159 130.008 106.564 129.955C107.094 129.886 107.524 129.835 107.854 129.801C108.187 129.763 108.429 129.701 108.581 129.614C108.736 129.527 108.814 129.375 108.814 129.159V129.114C108.814 128.553 108.661 128.117 108.354 127.807C108.051 127.496 107.59 127.341 106.973 127.341C106.333 127.341 105.831 127.481 105.467 127.761C105.104 128.042 104.848 128.341 104.7 128.659L103.428 128.205C103.655 127.674 103.958 127.261 104.337 126.966C104.719 126.667 105.136 126.458 105.587 126.341C106.041 126.22 106.488 126.159 106.928 126.159C107.208 126.159 107.53 126.193 107.893 126.261C108.261 126.326 108.615 126.46 108.956 126.665C109.301 126.869 109.587 127.178 109.814 127.591C110.041 128.004 110.155 128.557 110.155 129.25V135H108.814V133.818H108.746C108.655 134.008 108.503 134.21 108.291 134.426C108.079 134.642 107.797 134.826 107.445 134.977C107.092 135.129 106.662 135.205 106.155 135.205ZM106.359 134C106.89 134 107.337 133.896 107.7 133.688C108.068 133.479 108.344 133.21 108.53 132.881C108.719 132.551 108.814 132.205 108.814 131.841V130.614C108.757 130.682 108.632 130.744 108.439 130.801C108.25 130.854 108.03 130.902 107.78 130.943C107.534 130.981 107.293 131.015 107.058 131.045C106.827 131.072 106.64 131.095 106.496 131.114C106.147 131.159 105.821 131.233 105.518 131.335C105.219 131.434 104.977 131.583 104.791 131.784C104.609 131.981 104.518 132.25 104.518 132.591C104.518 133.057 104.691 133.409 105.036 133.648C105.384 133.883 105.825 134 106.359 134Z" fill="#1E1E1E"/>
<path d="M24 156C24 151.582 27.5817 148 32 148H288C292.418 148 296 151.582 296 156V180C296 184.418 292.418 188 288 188H32C27.5817 188 24 184.418 24 180V156Z" fill="white"/>
<path d="M32 148V148.5H288V148V147.5H32V148ZM296 156H295.5V180H296H296.5V156H296ZM288 188V187.5H32V188V188.5H288V188ZM24 180H24.5V156H24H23.5V180H24ZM32 188V187.5C27.8579 187.5 24.5 184.142 24.5 180H24H23.5C23.5 184.694 27.3056 188.5 32 188.5V188ZM296 180H295.5C295.5 184.142 292.142 187.5 288 187.5V188V188.5C292.694 188.5 296.5 184.694 296.5 180H296ZM288 148V148.5C292.142 148.5 295.5 151.858 295.5 156H296H296.5C296.5 151.306 292.694 147.5 288 147.5V148ZM32 148V147.5C27.3056 147.5 23.5 151.306 23.5 156H24H24.5C24.5 151.858 27.8579 148.5 32 148.5V148Z" fill="#D9D9D9"/>
<path d="M50.7727 166H49.3636C49.2803 165.595 49.1345 165.239 48.9261 164.932C48.7216 164.625 48.4716 164.367 48.1761 164.159C47.8845 163.947 47.5606 163.788 47.2045 163.682C46.8485 163.576 46.4773 163.523 46.0909 163.523C45.3864 163.523 44.7481 163.701 44.1761 164.057C43.608 164.413 43.1553 164.938 42.8182 165.631C42.4848 166.324 42.3182 167.174 42.3182 168.182C42.3182 169.189 42.4848 170.04 42.8182 170.733C43.1553 171.426 43.608 171.951 44.1761 172.307C44.7481 172.663 45.3864 172.841 46.0909 172.841C46.4773 172.841 46.8485 172.788 47.2045 172.682C47.5606 172.576 47.8845 172.419 48.1761 172.21C48.4716 171.998 48.7216 171.739 48.9261 171.432C49.1345 171.121 49.2803 170.765 49.3636 170.364H50.7727C50.6667 170.958 50.4735 171.491 50.1932 171.96C49.9129 172.43 49.5644 172.83 49.1477 173.159C48.7311 173.485 48.2633 173.733 47.7443 173.903C47.2292 174.074 46.678 174.159 46.0909 174.159C45.0985 174.159 44.2159 173.917 43.4432 173.432C42.6705 172.947 42.0625 172.258 41.6193 171.364C41.1761 170.47 40.9545 169.409 40.9545 168.182C40.9545 166.955 41.1761 165.894 41.6193 165C42.0625 164.106 42.6705 163.417 43.4432 162.932C44.2159 162.447 45.0985 162.205 46.0909 162.205C46.678 162.205 47.2292 162.29 47.7443 162.46C48.2633 162.631 48.7311 162.881 49.1477 163.21C49.5644 163.536 49.9129 163.934 50.1932 164.403C50.4735 164.869 50.6667 165.402 50.7727 166ZM56.4134 174.182C55.6255 174.182 54.9342 173.994 54.3395 173.619C53.7486 173.244 53.2865 172.72 52.9531 172.045C52.6236 171.371 52.4588 170.583 52.4588 169.682C52.4588 168.773 52.6236 167.979 52.9531 167.301C53.2865 166.623 53.7486 166.097 54.3395 165.722C54.9342 165.347 55.6255 165.159 56.4134 165.159C57.2012 165.159 57.8906 165.347 58.4815 165.722C59.0762 166.097 59.5384 166.623 59.8679 167.301C60.2012 167.979 60.3679 168.773 60.3679 169.682C60.3679 170.583 60.2012 171.371 59.8679 172.045C59.5384 172.72 59.0762 173.244 58.4815 173.619C57.8906 173.994 57.2012 174.182 56.4134 174.182ZM56.4134 172.977C57.0118 172.977 57.5043 172.824 57.8906 172.517C58.277 172.21 58.563 171.807 58.7486 171.307C58.9342 170.807 59.027 170.265 59.027 169.682C59.027 169.098 58.9342 168.555 58.7486 168.051C58.563 167.547 58.277 167.14 57.8906 166.83C57.5043 166.519 57.0118 166.364 56.4134 166.364C55.8149 166.364 55.3224 166.519 54.9361 166.83C54.5497 167.14 54.2637 167.547 54.0781 168.051C53.8925 168.555 53.7997 169.098 53.7997 169.682C53.7997 170.265 53.8925 170.807 54.0781 171.307C54.2637 171.807 54.5497 172.21 54.9361 172.517C55.3224 172.824 55.8149 172.977 56.4134 172.977ZM63.7557 168.75V174H62.4148V165.273H63.7102V166.636H63.8239C64.0284 166.193 64.339 165.837 64.7557 165.568C65.1723 165.295 65.7102 165.159 66.3693 165.159C66.9602 165.159 67.4773 165.28 67.9205 165.523C68.3636 165.761 68.7083 166.125 68.9545 166.614C69.2008 167.098 69.3239 167.712 69.3239 168.455V174H67.983V168.545C67.983 167.86 67.8049 167.326 67.4489 166.943C67.0928 166.557 66.6042 166.364 65.983 166.364C65.5549 166.364 65.1723 166.456 64.8352 166.642C64.5019 166.828 64.2386 167.098 64.0455 167.455C63.8523 167.811 63.7557 168.242 63.7557 168.75ZM75.5696 165.273V166.409H71.0469V165.273H75.5696ZM72.3651 163.182H73.706V171.5C73.706 171.879 73.7609 172.163 73.8707 172.352C73.9844 172.538 74.1283 172.663 74.3026 172.727C74.4806 172.788 74.6681 172.818 74.8651 172.818C75.0128 172.818 75.134 172.811 75.2287 172.795C75.3234 172.777 75.3991 172.761 75.456 172.75L75.7287 173.955C75.6378 173.989 75.5109 174.023 75.348 174.057C75.1851 174.095 74.9787 174.114 74.7287 174.114C74.3499 174.114 73.9787 174.032 73.6151 173.869C73.2552 173.706 72.956 173.458 72.7173 173.125C72.4825 172.792 72.3651 172.371 72.3651 171.864V163.182ZM77.5866 174V165.273H78.8821V166.591H78.973C79.1321 166.159 79.42 165.809 79.8366 165.54C80.2533 165.271 80.723 165.136 81.2457 165.136C81.3442 165.136 81.4673 165.138 81.6151 165.142C81.7628 165.146 81.8745 165.152 81.9503 165.159V166.523C81.9048 166.511 81.8007 166.494 81.6378 166.472C81.4787 166.445 81.3101 166.432 81.1321 166.432C80.7079 166.432 80.3291 166.521 79.9957 166.699C79.6662 166.873 79.4048 167.116 79.2116 167.426C79.0223 167.733 78.9276 168.083 78.9276 168.477V174H77.5866ZM86.108 174.205C85.5549 174.205 85.053 174.1 84.6023 173.892C84.1515 173.68 83.7936 173.375 83.5284 172.977C83.2633 172.576 83.1307 172.091 83.1307 171.523C83.1307 171.023 83.2292 170.617 83.4261 170.307C83.6231 169.992 83.8864 169.746 84.2159 169.568C84.5455 169.39 84.9091 169.258 85.3068 169.17C85.7083 169.08 86.1117 169.008 86.517 168.955C87.0473 168.886 87.4773 168.835 87.8068 168.801C88.1402 168.763 88.3826 168.701 88.5341 168.614C88.6894 168.527 88.767 168.375 88.767 168.159V168.114C88.767 167.553 88.6136 167.117 88.3068 166.807C88.0038 166.496 87.5436 166.341 86.9261 166.341C86.286 166.341 85.7841 166.481 85.4205 166.761C85.0568 167.042 84.8011 167.341 84.6534 167.659L83.3807 167.205C83.608 166.674 83.911 166.261 84.2898 165.966C84.6723 165.667 85.089 165.458 85.5398 165.341C85.9943 165.22 86.4413 165.159 86.8807 165.159C87.161 165.159 87.483 165.193 87.8466 165.261C88.214 165.326 88.5682 165.46 88.9091 165.665C89.2538 165.869 89.5398 166.178 89.767 166.591C89.9943 167.004 90.108 167.557 90.108 168.25V174H88.767V172.818H88.6989C88.608 173.008 88.4564 173.21 88.2443 173.426C88.0322 173.642 87.75 173.826 87.3977 173.977C87.0455 174.129 86.6155 174.205 86.108 174.205ZM86.3125 173C86.8428 173 87.2898 172.896 87.6534 172.688C88.0208 172.479 88.2973 172.21 88.483 171.881C88.6723 171.551 88.767 171.205 88.767 170.841V169.614C88.7102 169.682 88.5852 169.744 88.392 169.801C88.2027 169.854 87.983 169.902 87.733 169.943C87.4867 169.981 87.2462 170.015 87.0114 170.045C86.7803 170.072 86.5928 170.095 86.4489 170.114C86.1004 170.159 85.7746 170.233 85.4716 170.335C85.1723 170.434 84.9299 170.583 84.7443 170.784C84.5625 170.981 84.4716 171.25 84.4716 171.591C84.4716 172.057 84.6439 172.409 84.9886 172.648C85.3371 172.883 85.7784 173 86.3125 173ZM98.7372 167.227L97.5327 167.568C97.4569 167.367 97.3452 167.172 97.1974 166.983C97.0535 166.79 96.8565 166.631 96.6065 166.506C96.3565 166.381 96.0365 166.318 95.6463 166.318C95.1122 166.318 94.6671 166.441 94.3111 166.688C93.9588 166.93 93.7827 167.239 93.7827 167.614C93.7827 167.947 93.9039 168.21 94.1463 168.403C94.3887 168.597 94.7675 168.758 95.2827 168.886L96.5781 169.205C97.3584 169.394 97.9399 169.684 98.3224 170.074C98.705 170.46 98.8963 170.958 98.8963 171.568C98.8963 172.068 98.7524 172.515 98.4645 172.909C98.1804 173.303 97.7827 173.614 97.2713 173.841C96.7599 174.068 96.1652 174.182 95.4872 174.182C94.5971 174.182 93.8603 173.989 93.277 173.602C92.6937 173.216 92.3243 172.652 92.169 171.909L93.4418 171.591C93.563 172.061 93.7921 172.413 94.1293 172.648C94.4702 172.883 94.9152 173 95.4645 173C96.0895 173 96.5857 172.867 96.9531 172.602C97.3243 172.333 97.5099 172.011 97.5099 171.636C97.5099 171.333 97.4039 171.08 97.1918 170.875C96.9796 170.667 96.6539 170.511 96.2145 170.409L94.7599 170.068C93.9607 169.879 93.3736 169.585 92.9986 169.188C92.6274 168.786 92.4418 168.284 92.4418 167.682C92.4418 167.189 92.58 166.754 92.8565 166.375C93.1368 165.996 93.5175 165.699 93.9986 165.483C94.4834 165.267 95.0327 165.159 95.6463 165.159C96.5099 165.159 97.188 165.348 97.6804 165.727C98.1766 166.106 98.5289 166.606 98.7372 167.227ZM104.574 174.182C103.733 174.182 103.008 173.996 102.398 173.625C101.792 173.25 101.324 172.727 100.994 172.057C100.669 171.383 100.506 170.598 100.506 169.705C100.506 168.811 100.669 168.023 100.994 167.341C101.324 166.655 101.782 166.121 102.369 165.739C102.96 165.352 103.65 165.159 104.438 165.159C104.892 165.159 105.341 165.235 105.784 165.386C106.227 165.538 106.631 165.784 106.994 166.125C107.358 166.462 107.648 166.909 107.864 167.466C108.08 168.023 108.188 168.708 108.188 169.523V170.091H101.46V168.932H106.824C106.824 168.439 106.725 168 106.528 167.614C106.335 167.227 106.059 166.922 105.699 166.699C105.343 166.475 104.922 166.364 104.438 166.364C103.903 166.364 103.441 166.496 103.051 166.761C102.665 167.023 102.367 167.364 102.159 167.784C101.951 168.205 101.847 168.655 101.847 169.136V169.909C101.847 170.568 101.96 171.127 102.188 171.585C102.419 172.04 102.739 172.386 103.148 172.625C103.557 172.86 104.032 172.977 104.574 172.977C104.926 172.977 105.244 172.928 105.528 172.83C105.816 172.727 106.064 172.576 106.273 172.375C106.481 172.17 106.642 171.917 106.756 171.614L108.051 171.977C107.915 172.417 107.686 172.803 107.364 173.136C107.042 173.466 106.644 173.723 106.17 173.909C105.697 174.091 105.165 174.182 104.574 174.182ZM111.568 168.75V174H110.227V165.273H111.523V166.636H111.636C111.841 166.193 112.152 165.837 112.568 165.568C112.985 165.295 113.523 165.159 114.182 165.159C114.773 165.159 115.29 165.28 115.733 165.523C116.176 165.761 116.521 166.125 116.767 166.614C117.013 167.098 117.136 167.712 117.136 168.455V174H115.795V168.545C115.795 167.86 115.617 167.326 115.261 166.943C114.905 166.557 114.417 166.364 113.795 166.364C113.367 166.364 112.985 166.456 112.648 166.642C112.314 166.828 112.051 167.098 111.858 167.455C111.665 167.811 111.568 168.242 111.568 168.75ZM111.932 164.227L110.886 164.182C110.886 163.602 111.051 163.129 111.381 162.761C111.714 162.39 112.125 162.205 112.614 162.205C112.83 162.205 113.021 162.242 113.188 162.318C113.354 162.39 113.513 162.473 113.665 162.568C113.816 162.663 113.972 162.748 114.131 162.824C114.294 162.896 114.477 162.932 114.682 162.932C114.898 162.932 115.08 162.848 115.227 162.682C115.379 162.511 115.455 162.307 115.455 162.068L116.477 162.159C116.477 162.75 116.311 163.22 115.977 163.568C115.648 163.917 115.239 164.091 114.75 164.091C114.489 164.091 114.273 164.055 114.102 163.983C113.932 163.907 113.78 163.822 113.648 163.727C113.515 163.633 113.375 163.549 113.227 163.477C113.08 163.402 112.898 163.364 112.682 163.364C112.466 163.364 112.286 163.449 112.142 163.619C112.002 163.786 111.932 163.989 111.932 164.227ZM122.155 174.205C121.602 174.205 121.1 174.1 120.649 173.892C120.198 173.68 119.84 173.375 119.575 172.977C119.31 172.576 119.178 172.091 119.178 171.523C119.178 171.023 119.276 170.617 119.473 170.307C119.67 169.992 119.933 169.746 120.263 169.568C120.592 169.39 120.956 169.258 121.354 169.17C121.755 169.08 122.159 169.008 122.564 168.955C123.094 168.886 123.524 168.835 123.854 168.801C124.187 168.763 124.429 168.701 124.581 168.614C124.736 168.527 124.814 168.375 124.814 168.159V168.114C124.814 167.553 124.661 167.117 124.354 166.807C124.051 166.496 123.59 166.341 122.973 166.341C122.333 166.341 121.831 166.481 121.467 166.761C121.104 167.042 120.848 167.341 120.7 167.659L119.428 167.205C119.655 166.674 119.958 166.261 120.337 165.966C120.719 165.667 121.136 165.458 121.587 165.341C122.041 165.22 122.488 165.159 122.928 165.159C123.208 165.159 123.53 165.193 123.893 165.261C124.261 165.326 124.615 165.46 124.956 165.665C125.301 165.869 125.587 166.178 125.814 166.591C126.041 167.004 126.155 167.557 126.155 168.25V174H124.814V172.818H124.746C124.655 173.008 124.503 173.21 124.291 173.426C124.079 173.642 123.797 173.826 123.445 173.977C123.092 174.129 122.662 174.205 122.155 174.205ZM122.359 173C122.89 173 123.337 172.896 123.7 172.688C124.068 172.479 124.344 172.21 124.53 171.881C124.719 171.551 124.814 171.205 124.814 170.841V169.614C124.757 169.682 124.632 169.744 124.439 169.801C124.25 169.854 124.03 169.902 123.78 169.943C123.534 169.981 123.293 170.015 123.058 170.045C122.827 170.072 122.64 170.095 122.496 170.114C122.147 170.159 121.821 170.233 121.518 170.335C121.219 170.434 120.977 170.583 120.791 170.784C120.609 170.981 120.518 171.25 120.518 171.591C120.518 172.057 120.691 172.409 121.036 172.648C121.384 172.883 121.825 173 122.359 173Z" fill="#B3B3B3"/>
<mask id="path-11-inside-2_0_1" fill="white">
<path d="M24 220C24 215.582 27.5817 212 32 212H288C292.418 212 296 215.582 296 220V244C296 248.418 292.418 252 288 252H32C27.5817 252 24 248.418 24 244V220Z"/>
</mask>
<path d="M24 220C24 215.582 27.5817 212 32 212H288C292.418 212 296 215.582 296 220V244C296 248.418 292.418 252 288 252H32C27.5817 252 24 248.418 24 244V220Z" fill="#2C2C2C"/>
<path d="M32 212V213H288V212V211H32V212ZM296 220H295V244H296H297V220H296ZM288 252V251H32V252V253H288V252ZM24 244H25V220H24H23V244H24ZM32 252V251C28.134 251 25 247.866 25 244H24H23C23 248.971 27.0294 253 32 253V252ZM296 244H295C295 247.866 291.866 251 288 251V252V253C292.971 253 297 248.971 297 244H296ZM288 212V213C291.866 213 295 216.134 295 220H296H297C297 215.029 292.971 211 288 211V212ZM32 212V211C27.0294 211 23 215.029 23 220H24H25C25 216.134 28.134 213 32 213V212Z" fill="#2C2C2C" mask="url(#path-11-inside-2_0_1)"/>
<path d="M131.818 226.364V238H130.409V226.364H131.818ZM135.803 232.75V238H134.462V229.273H135.757V230.636H135.871C136.075 230.193 136.386 229.837 136.803 229.568C137.219 229.295 137.757 229.159 138.416 229.159C139.007 229.159 139.524 229.28 139.967 229.523C140.411 229.761 140.755 230.125 141.001 230.614C141.248 231.098 141.371 231.712 141.371 232.455V238H140.03V232.545C140.03 231.86 139.852 231.326 139.496 230.943C139.14 230.557 138.651 230.364 138.03 230.364C137.602 230.364 137.219 230.456 136.882 230.642C136.549 230.828 136.286 231.098 136.092 231.455C135.899 231.811 135.803 232.242 135.803 232.75ZM147.344 241.455C146.696 241.455 146.139 241.371 145.673 241.205C145.207 241.042 144.819 240.826 144.509 240.557C144.202 240.292 143.957 240.008 143.776 239.705L144.844 238.955C144.965 239.114 145.118 239.295 145.304 239.5C145.49 239.708 145.743 239.888 146.065 240.04C146.391 240.195 146.817 240.273 147.344 240.273C148.048 240.273 148.63 240.102 149.088 239.761C149.546 239.42 149.776 238.886 149.776 238.159V236.386H149.662C149.563 236.545 149.423 236.742 149.241 236.977C149.063 237.208 148.806 237.415 148.469 237.597C148.135 237.775 147.685 237.864 147.116 237.864C146.412 237.864 145.779 237.697 145.219 237.364C144.662 237.03 144.221 236.545 143.895 235.909C143.573 235.273 143.412 234.5 143.412 233.591C143.412 232.697 143.569 231.919 143.884 231.256C144.198 230.589 144.635 230.074 145.196 229.71C145.757 229.343 146.404 229.159 147.139 229.159C147.707 229.159 148.158 229.254 148.491 229.443C148.829 229.629 149.086 229.841 149.264 230.08C149.446 230.314 149.586 230.508 149.685 230.659H149.821V229.273H151.116V238.25C151.116 239 150.946 239.61 150.605 240.08C150.268 240.553 149.813 240.9 149.241 241.119C148.673 241.343 148.041 241.455 147.344 241.455ZM147.298 236.659C147.836 236.659 148.291 236.536 148.662 236.29C149.033 236.044 149.315 235.689 149.509 235.227C149.702 234.765 149.798 234.212 149.798 233.568C149.798 232.939 149.704 232.384 149.514 231.903C149.325 231.422 149.045 231.045 148.673 230.773C148.302 230.5 147.844 230.364 147.298 230.364C146.73 230.364 146.257 230.508 145.878 230.795C145.503 231.083 145.221 231.47 145.031 231.955C144.846 232.439 144.753 232.977 144.753 233.568C144.753 234.174 144.848 234.71 145.037 235.176C145.23 235.638 145.514 236.002 145.889 236.267C146.268 236.528 146.738 236.659 147.298 236.659ZM153.571 238V229.273H154.866V230.591H154.957C155.116 230.159 155.404 229.809 155.821 229.54C156.238 229.271 156.707 229.136 157.23 229.136C157.329 229.136 157.452 229.138 157.599 229.142C157.747 229.146 157.859 229.152 157.935 229.159V230.523C157.889 230.511 157.785 230.494 157.622 230.472C157.463 230.445 157.295 230.432 157.116 230.432C156.692 230.432 156.313 230.521 155.98 230.699C155.651 230.873 155.389 231.116 155.196 231.426C155.007 231.733 154.912 232.083 154.912 232.477V238H153.571ZM162.918 238.182C162.077 238.182 161.351 237.996 160.741 237.625C160.135 237.25 159.668 236.727 159.338 236.057C159.012 235.383 158.849 234.598 158.849 233.705C158.849 232.811 159.012 232.023 159.338 231.341C159.668 230.655 160.126 230.121 160.713 229.739C161.304 229.352 161.993 229.159 162.781 229.159C163.236 229.159 163.685 229.235 164.128 229.386C164.571 229.538 164.974 229.784 165.338 230.125C165.702 230.462 165.991 230.909 166.207 231.466C166.423 232.023 166.531 232.708 166.531 233.523V234.091H159.804V232.932H165.168C165.168 232.439 165.069 232 164.872 231.614C164.679 231.227 164.402 230.922 164.043 230.699C163.687 230.475 163.266 230.364 162.781 230.364C162.247 230.364 161.785 230.496 161.395 230.761C161.009 231.023 160.711 231.364 160.503 231.784C160.295 232.205 160.19 232.655 160.19 233.136V233.909C160.19 234.568 160.304 235.127 160.531 235.585C160.762 236.04 161.082 236.386 161.491 236.625C161.901 236.86 162.376 236.977 162.918 236.977C163.27 236.977 163.588 236.928 163.872 236.83C164.16 236.727 164.408 236.576 164.616 236.375C164.825 236.17 164.986 235.917 165.099 235.614L166.395 235.977C166.259 236.417 166.029 236.803 165.707 237.136C165.385 237.466 164.988 237.723 164.514 237.909C164.041 238.091 163.509 238.182 162.918 238.182ZM174.753 231.227L173.548 231.568C173.473 231.367 173.361 231.172 173.213 230.983C173.069 230.79 172.872 230.631 172.622 230.506C172.372 230.381 172.052 230.318 171.662 230.318C171.128 230.318 170.683 230.441 170.327 230.688C169.974 230.93 169.798 231.239 169.798 231.614C169.798 231.947 169.92 232.21 170.162 232.403C170.404 232.597 170.783 232.758 171.298 232.886L172.594 233.205C173.374 233.394 173.955 233.684 174.338 234.074C174.721 234.46 174.912 234.958 174.912 235.568C174.912 236.068 174.768 236.515 174.48 236.909C174.196 237.303 173.798 237.614 173.287 237.841C172.776 238.068 172.181 238.182 171.503 238.182C170.613 238.182 169.876 237.989 169.293 237.602C168.709 237.216 168.34 236.652 168.185 235.909L169.457 235.591C169.579 236.061 169.808 236.413 170.145 236.648C170.486 236.883 170.931 237 171.48 237C172.105 237 172.601 236.867 172.969 236.602C173.34 236.333 173.526 236.011 173.526 235.636C173.526 235.333 173.42 235.08 173.207 234.875C172.995 234.667 172.67 234.511 172.23 234.409L170.776 234.068C169.976 233.879 169.389 233.585 169.014 233.188C168.643 232.786 168.457 232.284 168.457 231.682C168.457 231.189 168.596 230.754 168.872 230.375C169.152 229.996 169.533 229.699 170.014 229.483C170.499 229.267 171.048 229.159 171.662 229.159C172.526 229.159 173.204 229.348 173.696 229.727C174.192 230.106 174.545 230.606 174.753 231.227ZM179.499 238.205C178.946 238.205 178.444 238.1 177.993 237.892C177.542 237.68 177.184 237.375 176.919 236.977C176.654 236.576 176.521 236.091 176.521 235.523C176.521 235.023 176.62 234.617 176.817 234.307C177.014 233.992 177.277 233.746 177.607 233.568C177.936 233.39 178.3 233.258 178.697 233.17C179.099 233.08 179.502 233.008 179.908 232.955C180.438 232.886 180.868 232.835 181.197 232.801C181.531 232.763 181.773 232.701 181.925 232.614C182.08 232.527 182.158 232.375 182.158 232.159V232.114C182.158 231.553 182.004 231.117 181.697 230.807C181.394 230.496 180.934 230.341 180.317 230.341C179.677 230.341 179.175 230.481 178.811 230.761C178.447 231.042 178.192 231.341 178.044 231.659L176.771 231.205C176.999 230.674 177.302 230.261 177.68 229.966C178.063 229.667 178.48 229.458 178.93 229.341C179.385 229.22 179.832 229.159 180.271 229.159C180.552 229.159 180.874 229.193 181.237 229.261C181.605 229.326 181.959 229.46 182.3 229.665C182.644 229.869 182.93 230.178 183.158 230.591C183.385 231.004 183.499 231.557 183.499 232.25V238H182.158V236.818H182.089C181.999 237.008 181.847 237.21 181.635 237.426C181.423 237.642 181.141 237.826 180.788 237.977C180.436 238.129 180.006 238.205 179.499 238.205ZM179.703 237C180.233 237 180.68 236.896 181.044 236.688C181.411 236.479 181.688 236.21 181.874 235.881C182.063 235.551 182.158 235.205 182.158 234.841V233.614C182.101 233.682 181.976 233.744 181.783 233.801C181.593 233.854 181.374 233.902 181.124 233.943C180.877 233.981 180.637 234.015 180.402 234.045C180.171 234.072 179.983 234.095 179.839 234.114C179.491 234.159 179.165 234.233 178.862 234.335C178.563 234.434 178.321 234.583 178.135 234.784C177.953 234.981 177.862 235.25 177.862 235.591C177.862 236.057 178.035 236.409 178.379 236.648C178.728 236.883 179.169 237 179.703 237ZM185.946 238V229.273H187.241V230.591H187.332C187.491 230.159 187.779 229.809 188.196 229.54C188.613 229.271 189.082 229.136 189.605 229.136C189.704 229.136 189.827 229.138 189.974 229.142C190.122 229.146 190.234 229.152 190.31 229.159V230.523C190.264 230.511 190.16 230.494 189.997 230.472C189.838 230.445 189.67 230.432 189.491 230.432C189.067 230.432 188.688 230.521 188.355 230.699C188.026 230.873 187.764 231.116 187.571 231.426C187.382 231.733 187.287 232.083 187.287 232.477V238H185.946Z" fill="#F5F5F5"/>
<path d="M35.2273 287.182C35.2273 288.409 35.0057 289.47 34.5625 290.364C34.1193 291.258 33.5114 291.947 32.7386 292.432C31.9659 292.917 31.0833 293.159 30.0909 293.159C29.0985 293.159 28.2159 292.917 27.4432 292.432C26.6705 291.947 26.0625 291.258 25.6193 290.364C25.1761 289.47 24.9545 288.409 24.9545 287.182C24.9545 285.955 25.1761 284.894 25.6193 284C26.0625 283.106 26.6705 282.417 27.4432 281.932C28.2159 281.447 29.0985 281.205 30.0909 281.205C31.0833 281.205 31.9659 281.447 32.7386 281.932C33.5114 282.417 34.1193 283.106 34.5625 284C35.0057 284.894 35.2273 285.955 35.2273 287.182ZM33.8636 287.182C33.8636 286.174 33.6951 285.324 33.358 284.631C33.0246 283.938 32.572 283.413 32 283.057C31.4318 282.701 30.7955 282.523 30.0909 282.523C29.3864 282.523 28.7481 282.701 28.1761 283.057C27.608 283.413 27.1553 283.938 26.8182 284.631C26.4848 285.324 26.3182 286.174 26.3182 287.182C26.3182 288.189 26.4848 289.04 26.8182 289.733C27.1553 290.426 27.608 290.951 28.1761 291.307C28.7481 291.663 29.3864 291.841 30.0909 291.841C30.7955 291.841 31.4318 291.663 32 291.307C32.572 290.951 33.0246 290.426 33.358 289.733C33.6951 289.04 33.8636 288.189 33.8636 287.182ZM38.7557 281.364V293H37.4148V281.364H38.7557ZM48.348 284.273L45.1207 293H43.7571L40.5298 284.273H41.9844L44.3935 291.227H44.4844L46.8935 284.273H48.348ZM50.1179 293V284.273H51.4588V293H50.1179ZM50.7997 282.818C50.5384 282.818 50.313 282.729 50.1236 282.551C49.938 282.373 49.8452 282.159 49.8452 281.909C49.8452 281.659 49.938 281.445 50.1236 281.267C50.313 281.089 50.5384 281 50.7997 281C51.0611 281 51.2846 281.089 51.4702 281.267C51.6596 281.445 51.7543 281.659 51.7543 281.909C51.7543 282.159 51.6596 282.373 51.4702 282.551C51.2846 282.729 51.0611 282.818 50.7997 282.818ZM57.2102 293.182C56.483 293.182 55.8409 292.998 55.2841 292.631C54.7273 292.259 54.2917 291.737 53.9773 291.062C53.6629 290.384 53.5057 289.583 53.5057 288.659C53.5057 287.742 53.6629 286.947 53.9773 286.273C54.2917 285.598 54.7292 285.078 55.2898 284.71C55.8504 284.343 56.4981 284.159 57.233 284.159C57.8011 284.159 58.25 284.254 58.5795 284.443C58.9129 284.629 59.1667 284.841 59.3409 285.08C59.5189 285.314 59.6572 285.508 59.7557 285.659H59.8693V281.364H61.2102V293H59.9148V291.659H59.7557C59.6572 291.818 59.517 292.019 59.3352 292.261C59.1534 292.5 58.8939 292.714 58.5568 292.903C58.2197 293.089 57.7708 293.182 57.2102 293.182ZM57.392 291.977C57.9299 291.977 58.3845 291.837 58.7557 291.557C59.1269 291.273 59.4091 290.881 59.6023 290.381C59.7955 289.877 59.892 289.295 59.892 288.636C59.892 287.985 59.7973 287.415 59.608 286.926C59.4186 286.434 59.1383 286.051 58.767 285.778C58.3958 285.502 57.9375 285.364 57.392 285.364C56.8239 285.364 56.3504 285.509 55.9716 285.801C55.5966 286.089 55.3144 286.481 55.125 286.977C54.9394 287.47 54.8466 288.023 54.8466 288.636C54.8466 289.258 54.9413 289.822 55.1307 290.33C55.3239 290.833 55.608 291.235 55.983 291.534C56.3617 291.83 56.8314 291.977 57.392 291.977ZM67.3977 293.182C66.6098 293.182 65.9186 292.994 65.3239 292.619C64.733 292.244 64.2708 291.72 63.9375 291.045C63.608 290.371 63.4432 289.583 63.4432 288.682C63.4432 287.773 63.608 286.979 63.9375 286.301C64.2708 285.623 64.733 285.097 65.3239 284.722C65.9186 284.347 66.6098 284.159 67.3977 284.159C68.1856 284.159 68.875 284.347 69.4659 284.722C70.0606 285.097 70.5227 285.623 70.8523 286.301C71.1856 286.979 71.3523 287.773 71.3523 288.682C71.3523 289.583 71.1856 290.371 70.8523 291.045C70.5227 291.72 70.0606 292.244 69.4659 292.619C68.875 292.994 68.1856 293.182 67.3977 293.182ZM67.3977 291.977C67.9962 291.977 68.4886 291.824 68.875 291.517C69.2614 291.21 69.5473 290.807 69.733 290.307C69.9186 289.807 70.0114 289.265 70.0114 288.682C70.0114 288.098 69.9186 287.555 69.733 287.051C69.5473 286.547 69.2614 286.14 68.875 285.83C68.4886 285.519 67.9962 285.364 67.3977 285.364C66.7992 285.364 66.3068 285.519 65.9205 285.83C65.5341 286.14 65.2481 286.547 65.0625 287.051C64.8769 287.555 64.7841 288.098 64.7841 288.682C64.7841 289.265 64.8769 289.807 65.0625 290.307C65.2481 290.807 65.5341 291.21 65.9205 291.517C66.3068 291.824 66.7992 291.977 67.3977 291.977ZM66.7841 283.091L68.1705 280.455H69.7386L67.9659 283.091H66.7841ZM79.2401 281.364V293H77.8991V281.364H79.2401ZM84.2642 293.205C83.7112 293.205 83.2093 293.1 82.7585 292.892C82.3078 292.68 81.9498 292.375 81.6847 291.977C81.4195 291.576 81.2869 291.091 81.2869 290.523C81.2869 290.023 81.3854 289.617 81.5824 289.307C81.7794 288.992 82.0426 288.746 82.3722 288.568C82.7017 288.39 83.0653 288.258 83.4631 288.17C83.8646 288.08 84.268 288.008 84.6733 287.955C85.2036 287.886 85.6335 287.835 85.9631 287.801C86.2964 287.763 86.5388 287.701 86.6903 287.614C86.8456 287.527 86.9233 287.375 86.9233 287.159V287.114C86.9233 286.553 86.7699 286.117 86.4631 285.807C86.16 285.496 85.6998 285.341 85.0824 285.341C84.4422 285.341 83.9403 285.481 83.5767 285.761C83.2131 286.042 82.9574 286.341 82.8097 286.659L81.5369 286.205C81.7642 285.674 82.0672 285.261 82.446 284.966C82.8286 284.667 83.2453 284.458 83.696 284.341C84.1506 284.22 84.5975 284.159 85.0369 284.159C85.3172 284.159 85.6392 284.193 86.0028 284.261C86.3703 284.326 86.7244 284.46 87.0653 284.665C87.41 284.869 87.696 285.178 87.9233 285.591C88.1506 286.004 88.2642 286.557 88.2642 287.25V293H86.9233V291.818H86.8551C86.7642 292.008 86.6127 292.21 86.4006 292.426C86.1884 292.642 85.9063 292.826 85.554 292.977C85.2017 293.129 84.7718 293.205 84.2642 293.205ZM84.4688 292C84.9991 292 85.446 291.896 85.8097 291.688C86.1771 291.479 86.4536 291.21 86.6392 290.881C86.8286 290.551 86.9233 290.205 86.9233 289.841V288.614C86.8665 288.682 86.7415 288.744 86.5483 288.801C86.3589 288.854 86.1392 288.902 85.8892 288.943C85.643 288.981 85.4025 289.015 85.1676 289.045C84.9366 289.072 84.7491 289.095 84.6051 289.114C84.2566 289.159 83.9309 289.233 83.6278 289.335C83.3286 289.434 83.0862 289.583 82.9006 289.784C82.7188 289.981 82.6278 290.25 82.6278 290.591C82.6278 291.057 82.8002 291.409 83.1449 291.648C83.4934 291.883 83.9347 292 84.4688 292ZM98.7571 293.182C97.9389 293.182 97.2344 292.989 96.6435 292.602C96.0526 292.216 95.598 291.684 95.2798 291.006C94.9616 290.328 94.8026 289.553 94.8026 288.682C94.8026 287.795 94.9654 287.013 95.2912 286.335C95.6207 285.653 96.0791 285.121 96.6662 284.739C97.2571 284.352 97.9465 284.159 98.7344 284.159C99.348 284.159 99.901 284.273 100.393 284.5C100.886 284.727 101.289 285.045 101.604 285.455C101.918 285.864 102.113 286.341 102.189 286.886H100.848C100.746 286.489 100.518 286.136 100.166 285.83C99.8177 285.519 99.348 285.364 98.7571 285.364C98.2344 285.364 97.776 285.5 97.3821 285.773C96.992 286.042 96.687 286.422 96.4673 286.915C96.2514 287.403 96.1435 287.977 96.1435 288.636C96.1435 289.311 96.2495 289.898 96.4616 290.398C96.6776 290.898 96.9806 291.286 97.3707 291.562C97.7647 291.839 98.2268 291.977 98.7571 291.977C99.1056 291.977 99.4219 291.917 99.706 291.795C99.9901 291.674 100.231 291.5 100.428 291.273C100.625 291.045 100.765 290.773 100.848 290.455H102.189C102.113 290.97 101.926 291.434 101.626 291.847C101.331 292.256 100.939 292.581 100.45 292.824C99.9654 293.062 99.401 293.182 98.7571 293.182ZM107.695 293.182C106.907 293.182 106.215 292.994 105.621 292.619C105.03 292.244 104.568 291.72 104.234 291.045C103.905 290.371 103.74 289.583 103.74 288.682C103.74 287.773 103.905 286.979 104.234 286.301C104.568 285.623 105.03 285.097 105.621 284.722C106.215 284.347 106.907 284.159 107.695 284.159C108.482 284.159 109.172 284.347 109.763 284.722C110.357 285.097 110.82 285.623 111.149 286.301C111.482 286.979 111.649 287.773 111.649 288.682C111.649 289.583 111.482 290.371 111.149 291.045C110.82 291.72 110.357 292.244 109.763 292.619C109.172 292.994 108.482 293.182 107.695 293.182ZM107.695 291.977C108.293 291.977 108.786 291.824 109.172 291.517C109.558 291.21 109.844 290.807 110.03 290.307C110.215 289.807 110.308 289.265 110.308 288.682C110.308 288.098 110.215 287.555 110.03 287.051C109.844 286.547 109.558 286.14 109.172 285.83C108.786 285.519 108.293 285.364 107.695 285.364C107.096 285.364 106.604 285.519 106.217 285.83C105.831 286.14 105.545 286.547 105.359 287.051C105.174 287.555 105.081 288.098 105.081 288.682C105.081 289.265 105.174 289.807 105.359 290.307C105.545 290.807 105.831 291.21 106.217 291.517C106.604 291.824 107.096 291.977 107.695 291.977ZM115.037 287.75V293H113.696V284.273H114.991V285.636H115.105C115.31 285.193 115.62 284.837 116.037 284.568C116.454 284.295 116.991 284.159 117.651 284.159C118.241 284.159 118.759 284.28 119.202 284.523C119.645 284.761 119.99 285.125 120.236 285.614C120.482 286.098 120.605 286.712 120.605 287.455V293H119.264V287.545C119.264 286.86 119.086 286.326 118.73 285.943C118.374 285.557 117.885 285.364 117.264 285.364C116.836 285.364 116.454 285.456 116.116 285.642C115.783 285.828 115.52 286.098 115.327 286.455C115.134 286.811 115.037 287.242 115.037 287.75ZM126.851 284.273V285.409H122.328V284.273H126.851ZM123.646 282.182H124.987V290.5C124.987 290.879 125.042 291.163 125.152 291.352C125.266 291.538 125.41 291.663 125.584 291.727C125.762 291.788 125.949 291.818 126.146 291.818C126.294 291.818 126.415 291.811 126.51 291.795C126.605 291.777 126.68 291.761 126.737 291.75L127.01 292.955C126.919 292.989 126.792 293.023 126.629 293.057C126.466 293.095 126.26 293.114 126.01 293.114C125.631 293.114 125.26 293.032 124.896 292.869C124.536 292.706 124.237 292.458 123.999 292.125C123.764 291.792 123.646 291.371 123.646 290.864V282.182ZM128.868 293V284.273H130.163V285.591H130.254C130.413 285.159 130.701 284.809 131.118 284.54C131.535 284.271 132.004 284.136 132.527 284.136C132.625 284.136 132.749 284.138 132.896 284.142C133.044 284.146 133.156 284.152 133.232 284.159V285.523C133.186 285.511 133.082 285.494 132.919 285.472C132.76 285.445 132.591 285.432 132.413 285.432C131.989 285.432 131.61 285.521 131.277 285.699C130.947 285.873 130.686 286.116 130.493 286.426C130.304 286.733 130.209 287.083 130.209 287.477V293H128.868ZM137.389 293.205C136.836 293.205 136.334 293.1 135.884 292.892C135.433 292.68 135.075 292.375 134.81 291.977C134.545 291.576 134.412 291.091 134.412 290.523C134.412 290.023 134.51 289.617 134.707 289.307C134.904 288.992 135.168 288.746 135.497 288.568C135.827 288.39 136.19 288.258 136.588 288.17C136.99 288.08 137.393 288.008 137.798 287.955C138.329 287.886 138.759 287.835 139.088 287.801C139.421 287.763 139.664 287.701 139.815 287.614C139.971 287.527 140.048 287.375 140.048 287.159V287.114C140.048 286.553 139.895 286.117 139.588 285.807C139.285 285.496 138.825 285.341 138.207 285.341C137.567 285.341 137.065 285.481 136.702 285.761C136.338 286.042 136.082 286.341 135.935 286.659L134.662 286.205C134.889 285.674 135.192 285.261 135.571 284.966C135.954 284.667 136.37 284.458 136.821 284.341C137.276 284.22 137.723 284.159 138.162 284.159C138.442 284.159 138.764 284.193 139.128 284.261C139.495 284.326 139.849 284.46 140.19 284.665C140.535 284.869 140.821 285.178 141.048 285.591C141.276 286.004 141.389 286.557 141.389 287.25V293H140.048V291.818H139.98C139.889 292.008 139.738 292.21 139.526 292.426C139.313 292.642 139.031 292.826 138.679 292.977C138.327 293.129 137.897 293.205 137.389 293.205ZM137.594 292C138.124 292 138.571 291.896 138.935 291.688C139.302 291.479 139.579 291.21 139.764 290.881C139.954 290.551 140.048 290.205 140.048 289.841V288.614C139.991 288.682 139.866 288.744 139.673 288.801C139.484 288.854 139.264 288.902 139.014 288.943C138.768 288.981 138.527 289.015 138.293 289.045C138.062 289.072 137.874 289.095 137.73 289.114C137.382 289.159 137.056 289.233 136.753 289.335C136.454 289.434 136.211 289.583 136.026 289.784C135.844 289.981 135.753 290.25 135.753 290.591C135.753 291.057 135.925 291.409 136.27 291.648C136.618 291.883 137.06 292 137.594 292ZM150.018 286.227L148.814 286.568C148.738 286.367 148.626 286.172 148.479 285.983C148.335 285.79 148.138 285.631 147.888 285.506C147.638 285.381 147.318 285.318 146.928 285.318C146.393 285.318 145.948 285.441 145.592 285.688C145.24 285.93 145.064 286.239 145.064 286.614C145.064 286.947 145.185 287.21 145.428 287.403C145.67 287.597 146.049 287.758 146.564 287.886L147.859 288.205C148.64 288.394 149.221 288.684 149.604 289.074C149.986 289.46 150.178 289.958 150.178 290.568C150.178 291.068 150.034 291.515 149.746 291.909C149.462 292.303 149.064 292.614 148.553 292.841C148.041 293.068 147.446 293.182 146.768 293.182C145.878 293.182 145.142 292.989 144.558 292.602C143.975 292.216 143.606 291.652 143.45 290.909L144.723 290.591C144.844 291.061 145.073 291.413 145.411 291.648C145.751 291.883 146.196 292 146.746 292C147.371 292 147.867 291.867 148.234 291.602C148.606 291.333 148.791 291.011 148.791 290.636C148.791 290.333 148.685 290.08 148.473 289.875C148.261 289.667 147.935 289.511 147.496 289.409L146.041 289.068C145.242 288.879 144.655 288.585 144.28 288.188C143.909 287.786 143.723 287.284 143.723 286.682C143.723 286.189 143.861 285.754 144.138 285.375C144.418 284.996 144.799 284.699 145.28 284.483C145.765 284.267 146.314 284.159 146.928 284.159C147.791 284.159 148.469 284.348 148.962 284.727C149.458 285.106 149.81 285.606 150.018 286.227ZM155.855 293.182C155.014 293.182 154.289 292.996 153.679 292.625C153.073 292.25 152.605 291.727 152.276 291.057C151.95 290.383 151.787 289.598 151.787 288.705C151.787 287.811 151.95 287.023 152.276 286.341C152.605 285.655 153.063 285.121 153.651 284.739C154.241 284.352 154.931 284.159 155.719 284.159C156.173 284.159 156.622 284.235 157.065 284.386C157.509 284.538 157.912 284.784 158.276 285.125C158.639 285.462 158.929 285.909 159.145 286.466C159.361 287.023 159.469 287.708 159.469 288.523V289.091H152.741V287.932H158.105C158.105 287.439 158.007 287 157.81 286.614C157.616 286.227 157.34 285.922 156.98 285.699C156.624 285.475 156.204 285.364 155.719 285.364C155.185 285.364 154.723 285.496 154.332 285.761C153.946 286.023 153.649 286.364 153.44 286.784C153.232 287.205 153.128 287.655 153.128 288.136V288.909C153.128 289.568 153.241 290.127 153.469 290.585C153.7 291.04 154.02 291.386 154.429 291.625C154.838 291.86 155.313 291.977 155.855 291.977C156.207 291.977 156.526 291.928 156.81 291.83C157.098 291.727 157.346 291.576 157.554 291.375C157.762 291.17 157.923 290.917 158.037 290.614L159.332 290.977C159.196 291.417 158.967 291.803 158.645 292.136C158.323 292.466 157.925 292.723 157.452 292.909C156.978 293.091 156.446 293.182 155.855 293.182ZM162.849 287.75V293H161.509V284.273H162.804V285.636H162.918C163.122 285.193 163.433 284.837 163.849 284.568C164.266 284.295 164.804 284.159 165.463 284.159C166.054 284.159 166.571 284.28 167.014 284.523C167.457 284.761 167.802 285.125 168.048 285.614C168.295 286.098 168.418 286.712 168.418 287.455V293H167.077V287.545C167.077 286.86 166.899 286.326 166.543 285.943C166.187 285.557 165.698 285.364 165.077 285.364C164.649 285.364 164.266 285.456 163.929 285.642C163.596 285.828 163.332 286.098 163.139 286.455C162.946 286.811 162.849 287.242 162.849 287.75ZM163.213 283.227L162.168 283.182C162.168 282.602 162.332 282.129 162.662 281.761C162.995 281.39 163.406 281.205 163.895 281.205C164.111 281.205 164.302 281.242 164.469 281.318C164.635 281.39 164.795 281.473 164.946 281.568C165.098 281.663 165.253 281.748 165.412 281.824C165.575 281.896 165.759 281.932 165.963 281.932C166.179 281.932 166.361 281.848 166.509 281.682C166.66 281.511 166.736 281.307 166.736 281.068L167.759 281.159C167.759 281.75 167.592 282.22 167.259 282.568C166.929 282.917 166.52 283.091 166.031 283.091C165.77 283.091 165.554 283.055 165.384 282.983C165.213 282.907 165.062 282.822 164.929 282.727C164.796 282.633 164.656 282.549 164.509 282.477C164.361 282.402 164.179 282.364 163.963 282.364C163.747 282.364 163.567 282.449 163.423 282.619C163.283 282.786 163.213 282.989 163.213 283.227ZM173.436 293.205C172.883 293.205 172.381 293.1 171.93 292.892C171.48 292.68 171.122 292.375 170.857 291.977C170.591 291.576 170.459 291.091 170.459 290.523C170.459 290.023 170.557 289.617 170.754 289.307C170.951 288.992 171.214 288.746 171.544 288.568C171.874 288.39 172.237 288.258 172.635 288.17C173.036 288.08 173.44 288.008 173.845 287.955C174.375 287.886 174.805 287.835 175.135 287.801C175.468 287.763 175.711 287.701 175.862 287.614C176.018 287.527 176.095 287.375 176.095 287.159V287.114C176.095 286.553 175.942 286.117 175.635 285.807C175.332 285.496 174.872 285.341 174.254 285.341C173.614 285.341 173.112 285.481 172.749 285.761C172.385 286.042 172.129 286.341 171.982 286.659L170.709 286.205C170.936 285.674 171.239 285.261 171.618 284.966C172 284.667 172.417 284.458 172.868 284.341C173.322 284.22 173.769 284.159 174.209 284.159C174.489 284.159 174.811 284.193 175.175 284.261C175.542 284.326 175.896 284.46 176.237 284.665C176.582 284.869 176.868 285.178 177.095 285.591C177.322 286.004 177.436 286.557 177.436 287.25V293H176.095V291.818H176.027C175.936 292.008 175.785 292.21 175.572 292.426C175.36 292.642 175.078 292.826 174.726 292.977C174.374 293.129 173.944 293.205 173.436 293.205ZM173.641 292C174.171 292 174.618 291.896 174.982 291.688C175.349 291.479 175.625 291.21 175.811 290.881C176 290.551 176.095 290.205 176.095 289.841V288.614C176.038 288.682 175.913 288.744 175.72 288.801C175.531 288.854 175.311 288.902 175.061 288.943C174.815 288.981 174.574 289.015 174.339 289.045C174.108 289.072 173.921 289.095 173.777 289.114C173.429 289.159 173.103 289.233 172.8 289.335C172.5 289.434 172.258 289.583 172.072 289.784C171.891 289.981 171.8 290.25 171.8 290.591C171.8 291.057 171.972 291.409 172.317 291.648C172.665 291.883 173.107 292 173.641 292ZM181.634 289.727V289.659C181.641 288.936 181.717 288.36 181.861 287.932C182.005 287.504 182.209 287.157 182.474 286.892C182.74 286.627 183.058 286.383 183.429 286.159C183.652 286.023 183.853 285.862 184.031 285.676C184.209 285.487 184.349 285.269 184.452 285.023C184.558 284.777 184.611 284.504 184.611 284.205C184.611 283.833 184.524 283.511 184.349 283.239C184.175 282.966 183.942 282.756 183.651 282.608C183.359 282.46 183.035 282.386 182.679 282.386C182.368 282.386 182.069 282.451 181.781 282.58C181.493 282.708 181.253 282.911 181.06 283.188C180.866 283.464 180.755 283.826 180.724 284.273H179.293C179.323 283.629 179.49 283.078 179.793 282.619C180.099 282.161 180.503 281.811 181.003 281.568C181.507 281.326 182.065 281.205 182.679 281.205C183.346 281.205 183.925 281.337 184.418 281.602C184.914 281.867 185.296 282.231 185.565 282.693C185.838 283.155 185.974 283.682 185.974 284.273C185.974 284.689 185.91 285.066 185.781 285.403C185.656 285.741 185.474 286.042 185.236 286.307C185.001 286.572 184.717 286.807 184.384 287.011C184.05 287.22 183.783 287.439 183.582 287.67C183.382 287.898 183.236 288.169 183.145 288.483C183.054 288.797 183.005 289.189 182.997 289.659V289.727H181.634ZM182.361 293.091C182.08 293.091 181.84 292.991 181.639 292.79C181.438 292.589 181.338 292.348 181.338 292.068C181.338 291.788 181.438 291.547 181.639 291.347C181.84 291.146 182.08 291.045 182.361 291.045C182.641 291.045 182.882 291.146 183.082 291.347C183.283 291.547 183.384 291.788 183.384 292.068C183.384 292.254 183.336 292.424 183.241 292.58C183.151 292.735 183.027 292.86 182.872 292.955C182.721 293.045 182.55 293.091 182.361 293.091Z" fill="#1E1E1E"/>
<path d="M24 296.182H186.77V297.273H24V296.182Z" fill="#1E1E1E"/>
</svg>
